# xmcd
#
# Track frame offsets:
#	150
#	10148
#	19621
#	30386
#	39584
#	50049
#	63425
#	73904
#	84389
#	94648
#	104549
#	113355
#	123057
#	136674
#	145769
#	156012
#
# Disc length: 2186 seconds
#
# Revision: 1
# Processed by: cddbd v1.5.2PL0 Copyright (c) Steve Scherf et al.
# Submitted via: audiograbber 1.83.01
#
DISCID=c3088810
DTITLE=Little Richard - Little Richard (remastered) CD 1 of 2
DYEAR=1900
DGENRE=Rock and Roll
TTITLE0=Lucille
TTITLE1=Good Golly Miss Molly
TTITLE2=Tutti Frutti
TTITLE3=Long tall Sally
TTITLE4=Hound Dog
TTITLE5=Whole lotta shakin' going on
TTITLE6=Lawdy Miss Clawdy
TTITLE7=Money honey
TTITLE8=Groovy little Suzie
TTITLE9=Short fat Fanny
TTITLE10=Jenny Jenny
TTITLE11=She's got it
TTITLE12=The girl can't help it
TTITLE13=Rip it up
TTITLE14=Ooh! my soul
TTITLE15=Blueberry Hill
EXTD=
EXTT0=
EXTT1=
EXTT2=
EXTT3=
EXTT4=
EXTT5=
EXTT6=
EXTT7=
EXTT8=
EXTT9=
EXTT10=
EXTT11=
EXTT12=
EXTT13=
EXTT14=
EXTT15=
PLAYORDER=
